<svg viewBox="0 0 24 24" fill="none" xmlns="http://www.w3.org/2000/svg">
<path d="M7.0798 6.60742C3.71635 6.6075 1.20221 9.36072 1.01294 12.4278C1.13011 13.0887 1.51521 14.3937 2.11829 14.3267C2.87214 14.2429 4.77073 14.3267 6.39011 11.3951C7.57307 9.2535 10.0065 6.60736 7.0798 6.60742Z" fill="url(#paint0_radial_78825_1527)"/>
<path d="M6.30207 7.75198C5.17149 9.54202 3.64962 12.1069 3.13599 12.9141C2.52544 13.8735 0.908503 13.4659 1.04245 12.0907C1.02925 12.2024 1.01911 12.3149 1.01211 12.4282C0.790918 16.0061 3.6277 18.9774 7.15772 18.9774C11.0483 18.9774 20.327 14.1299 19.388 9.27292C18.3983 6.41789 15.6165 4.37012 12.4639 4.37012C9.31135 4.37012 7.29088 6.18639 6.30207 7.75198Z" fill="url(#paint1_radial_78825_1527)"/>
<path d="M6.30207 7.75198C5.17149 9.54202 3.64962 12.1069 3.13599 12.9141C2.52544 13.8735 0.908503 13.4659 1.04245 12.0907C1.02925 12.2024 1.01911 12.3149 1.01211 12.4282C0.790918 16.0061 3.6277 18.9774 7.15772 18.9774C11.0483 18.9774 20.327 14.1299 19.388 9.27292C18.3983 6.41789 15.6165 4.37012 12.4639 4.37012C9.31135 4.37012 7.29088 6.18639 6.30207 7.75198Z" fill="url(#paint2_radial_78825_1527)" fill-opacity="0.4"/>
<path d="M6.30207 7.75198C5.17149 9.54202 3.64962 12.1069 3.13599 12.9141C2.52544 13.8735 0.908503 13.4659 1.04245 12.0907C1.02925 12.2024 1.01911 12.3149 1.01211 12.4282C0.790918 16.0061 3.6277 18.9774 7.15772 18.9774C11.0483 18.9774 20.327 14.1299 19.388 9.27292C18.3983 6.41789 15.6165 4.37012 12.4639 4.37012C9.31135 4.37012 7.29088 6.18639 6.30207 7.75198Z" fill="url(#paint3_radial_78825_1527)"/>
<path d="M6.30207 7.75198C5.17149 9.54202 3.64962 12.1069 3.13599 12.9141C2.52544 13.8735 0.908503 13.4659 1.04245 12.0907C1.02925 12.2024 1.01911 12.3149 1.01211 12.4282C0.790918 16.0061 3.6277 18.9774 7.15772 18.9774C11.0483 18.9774 20.327 14.1299 19.388 9.27292C18.3983 6.41789 15.6165 4.37012 12.4639 4.37012C9.31135 4.37012 7.29088 6.18639 6.30207 7.75198Z" fill="url(#paint4_radial_78825_1527)" fill-opacity="0.6"/>
<path d="M6.30207 7.75198C5.17149 9.54202 3.64962 12.1069 3.13599 12.9141C2.52544 13.8735 0.908503 13.4659 1.04245 12.0907C1.02925 12.2024 1.01911 12.3149 1.01211 12.4282C0.790918 16.0061 3.6277 18.9774 7.15772 18.9774C11.0483 18.9774 20.327 14.1299 19.388 9.27292C18.3983 6.41789 15.6165 4.37012 12.4639 4.37012C9.31135 4.37012 7.29088 6.18639 6.30207 7.75198Z" fill="url(#paint5_radial_78825_1527)" fill-opacity="0.9"/>
<path d="M7.10092 18.9787C7.10092 18.9787 16.3905 18.997 17.9662 18.997C20.8258 18.997 23 16.6624 23 13.9382C23 11.214 20.7822 8.89355 17.9663 8.89355C15.1503 8.89355 13.5287 11.0002 12.3108 13.2997C10.8835 15.9943 9.06292 18.9464 7.10092 18.9787Z" fill="url(#paint6_linear_78825_1527)"/>
<path d="M7.10092 18.9787C7.10092 18.9787 16.3905 18.997 17.9662 18.997C20.8258 18.997 23 16.6624 23 13.9382C23 11.214 20.7822 8.89355 17.9663 8.89355C15.1503 8.89355 13.5287 11.0002 12.3108 13.2997C10.8835 15.9943 9.06292 18.9464 7.10092 18.9787Z" fill="url(#paint7_radial_78825_1527)" fill-opacity="0.4"/>
<path d="M7.10092 18.9787C7.10092 18.9787 16.3905 18.997 17.9662 18.997C20.8258 18.997 23 16.6624 23 13.9382C23 11.214 20.7822 8.89355 17.9663 8.89355C15.1503 8.89355 13.5287 11.0002 12.3108 13.2997C10.8835 15.9943 9.06292 18.9464 7.10092 18.9787Z" fill="url(#paint8_radial_78825_1527)" fill-opacity="0.9"/>
<defs>
<radialGradient id="paint0_radial_78825_1527" cx="0" cy="0" r="1" gradientTransform="matrix(4.44295 5.32363 -7.42079 9.05823 1.43007 7.41128)" gradientUnits="userSpaceOnUse">
<stop stop-color="#4894FE"/>
<stop offset="0.695072" stop-color="#0934B3"/>
</radialGradient>
<radialGradient id="paint1_radial_78825_1527" cx="0" cy="0" r="1" gradientTransform="matrix(-19.5315 22.5294 -17.2144 -13.8732 20.0448 -0.572467)" gradientUnits="userSpaceOnUse">
<stop offset="0.165327" stop-color="#23C0FE"/>
<stop offset="0.534" stop-color="#1C91FF"/>
</radialGradient>
<radialGradient id="paint2_radial_78825_1527" cx="0" cy="0" r="1" gradientTransform="matrix(-4.64289 -3.89774 -8.68487 10.8283 5.92949 7.80571)" gradientUnits="userSpaceOnUse">
<stop stop-color="white"/>
<stop offset="0.660528" stop-color="#ADC0FF" stop-opacity="0"/>
</radialGradient>
<radialGradient id="paint3_radial_78825_1527" cx="0" cy="0" r="1" gradientUnits="userSpaceOnUse" gradientTransform="translate(12.5213 14.9707) rotate(-139.764) scale(6.83283 10.3772)">
<stop stop-color="#033ACC"/>
<stop offset="1" stop-color="#368EFF" stop-opacity="0"/>
</radialGradient>
<radialGradient id="paint4_radial_78825_1527" cx="0" cy="0" r="1" gradientTransform="matrix(5.96125 13.7567 -14.8517 6.4343 5.52825 3.90798)" gradientUnits="userSpaceOnUse">
<stop offset="0.592618" stop-color="#3464E3" stop-opacity="0"/>
<stop offset="1" stop-color="#033ACC"/>
</radialGradient>
<radialGradient id="paint5_radial_78825_1527" cx="0" cy="0" r="1" gradientUnits="userSpaceOnUse" gradientTransform="translate(19.8044 0.984675) rotate(135) scale(22.054 34.5511)">
<stop stop-color="#4BFDE8"/>
<stop offset="0.543937" stop-color="#4BFDE8" stop-opacity="0"/>
</radialGradient>
<linearGradient id="paint6_linear_78825_1527" x1="15.0554" y1="18.9868" x2="15.0554" y2="9.01339" gradientUnits="userSpaceOnUse">
<stop stop-color="#0086FF"/>
<stop offset="0.49" stop-color="#00BBFF"/>
</linearGradient>
<radialGradient id="paint7_radial_78825_1527" cx="0" cy="0" r="1" gradientTransform="matrix(9.28962 3.68409 -11.7709 15.6901 9.84377 10.0818)" gradientUnits="userSpaceOnUse">
<stop stop-color="white"/>
<stop offset="0.785262" stop-color="white" stop-opacity="0"/>
</radialGradient>
<radialGradient id="paint8_radial_78825_1527" cx="0" cy="0" r="1" gradientTransform="matrix(-10.3781 8.9446 -12.3023 -7.54559 22.6892 8.11047)" gradientUnits="userSpaceOnUse">
<stop stop-color="#4BFDE8"/>
<stop offset="0.584724" stop-color="#4BFDE8" stop-opacity="0"/>
</radialGradient>
</defs>
</svg>
