<svg xmlns="http://www.w3.org/2000/svg" fill="none" viewBox="0 0 24 24"><path fill="#fff" d="M5.5 22h13c.275 0 .5-.225.5-.5V7h-3.5c-.827 0-1.5-.673-1.5-1.5V2H5.5c-.275 0-.5.225-.5.5v19c0 .275.225.5.5.5z"/><path fill="#fff" d="M18.293 6 15 2.707V5.5c0 .275.225.5.5.5h2.793z"/><path fill="#605E5C" fill-rule="evenodd" d="m19.56 5.854-4.414-4.415A1.51 1.51 0 0 0 14.086 1H5.5C4.673 1 4 1.673 4 2.5v19c0 .827.673 1.5 1.5 1.5h13c.827 0 1.5-.673 1.5-1.5V6.914c0-.4-.156-.777-.44-1.06zM15 2.707 18.293 6H15.5a.501.501 0 0 1-.5-.5V2.707zM5.5 22h13c.275 0 .5-.225.5-.5V7h-3.5c-.827 0-1.5-.673-1.5-1.5V2H5.5c-.275 0-.5.225-.5.5v19a.5.5 0 0 0 .5.5z" clip-rule="evenodd" opacity=".64"/><path fill="#C8C6C4" fill-rule="evenodd" d="M7.5 10h9a.5.5 0 0 0 0-1h-9a.5.5 0 0 0 0 1zm0 2h9a.5.5 0 0 0 0-1h-9a.5.5 0 0 0 0 1z" clip-rule="evenodd"/><path stroke="#D65532" stroke-linecap="round" stroke-linejoin="round" d="M14.5 20.5h-5a1 1 0 0 1-1-1v-4a1 1 0 0 1 1-1h5a1 1 0 0 1 1 1v4a1 1 0 0 1-1 1z" clip-rule="evenodd"/><path fill="#D65532" fill-rule="evenodd" d="M6.75 20H4a1 1 0 0 1-1-1v-3a1 1 0 0 1 1-1h2.75a.25.25 0 0 1 .25.25v4.5a.25.25 0 0 1-.25.25zm10.5-5H20a1 1 0 0 1 1 1v3a1 1 0 0 1-1 1h-2.75a.25.25 0 0 1-.25-.25v-4.5a.25.25 0 0 1 .25-.25z" clip-rule="evenodd"/></svg>