<svg width="22" height="22" viewBox="0 0 22 22" fill="none" xmlns="http://www.w3.org/2000/svg">
<path d="M16 11C17.6569 11 19 9.65685 19 8C19 6.34315 17.6569 5 16 5C14.3431 5 13 6.34315 13 8C13 9.65685 14.3431 11 16 11Z" fill="url(#paint0_radial_1_529)"/>
<path d="M13 13H10V14H11.3032C11.0782 14.3451 10.9474 14.7573 10.9474 15.2C10.9474 15.2 10.9474 18.5 15.9474 18.5L15.9738 18.5L16.0002 18.5C21.0002 18.5 21.0002 15.2 21.0002 15.2C21.0002 13.985 20.0152 13 18.8002 13H13.1474C13.0979 13 13.0487 13.0016 13 13.0049V13Z" fill="url(#paint1_radial_1_529)"/>
<path d="M13 13H10V14H11.3032C11.0782 14.3451 10.9474 14.7573 10.9474 15.2C10.9474 15.2 10.9474 18.5 15.9474 18.5L15.9738 18.5L16.0002 18.5C21.0002 18.5 21.0002 15.2 21.0002 15.2C21.0002 13.985 20.0152 13 18.8002 13H13.1474C13.0979 13 13.0487 13.0016 13 13.0049V13Z" fill="url(#paint2_radial_1_529)" fill-opacity="0.2"/>
<path d="M13 13H10V14H11.3032C11.0782 14.3451 10.9474 14.7573 10.9474 15.2C10.9474 15.2 10.9474 18.5 15.9474 18.5L15.9738 18.5L16.0002 18.5C21.0002 18.5 21.0002 15.2 21.0002 15.2C21.0002 13.985 20.0152 13 18.8002 13H13.1474C13.0979 13 13.0487 13.0016 13 13.0049V13Z" fill="url(#paint3_radial_1_529)" fill-opacity="0.25"/>
<path d="M3.25 13C2.00736 13 1 14.0074 1 15.25V15.5C1 15.5 1 20 7 20C13 20 13 15.5 13 15.5V15.25C13 14.0074 11.9926 13 10.75 13H3.25Z" fill="url(#paint4_radial_1_529)"/>
<path d="M7 11C9.20914 11 11 9.20914 11 7C11 4.79086 9.20914 3 7 3C4.79086 3 3 4.79086 3 7C3 9.20914 4.79086 11 7 11Z" fill="url(#paint5_radial_1_529)"/>
<defs>
<radialGradient id="paint0_radial_1_529" cx="0" cy="0" r="1" gradientUnits="userSpaceOnUse" gradientTransform="translate(14.7371 6.81905) rotate(47.5734) scale(4.91969)">
<stop stop-color="#008CE2"/>
<stop offset="1" stop-color="#0068C6"/>
</radialGradient>
<radialGradient id="paint1_radial_1_529" cx="0" cy="0" r="1" gradientUnits="userSpaceOnUse" gradientTransform="translate(13.858 14.6675) rotate(30.905) scale(6.48112 5.73549)">
<stop stop-color="#008CE2"/>
<stop offset="1" stop-color="#0068C6"/>
</radialGradient>
<radialGradient id="paint2_radial_1_529" cx="0" cy="0" r="1" gradientUnits="userSpaceOnUse" gradientTransform="translate(9.69085 15.4444) scale(5.02638 4.88889)">
<stop offset="0.607143"/>
<stop offset="1" stop-opacity="0"/>
</radialGradient>
<radialGradient id="paint3_radial_1_529" cx="0" cy="0" r="1" gradientUnits="userSpaceOnUse" gradientTransform="translate(9.69085 15.4444) scale(4.61406 4.48785)">
<stop offset="0.607143"/>
<stop offset="0.794643" stop-opacity="0"/>
</radialGradient>
<radialGradient id="paint4_radial_1_529" cx="0" cy="0" r="1" gradientUnits="userSpaceOnUse" gradientTransform="translate(5.92523 15.4578) rotate(44.7422) scale(5.37546 6.19825)">
<stop offset="0.338691" stop-color="#3DCBFF"/>
<stop offset="1" stop-color="#14B1FF"/>
</radialGradient>
<radialGradient id="paint5_radial_1_529" cx="0" cy="0" r="1" gradientUnits="userSpaceOnUse" gradientTransform="translate(6.22961 5.80894) rotate(59.9314) scale(4.99689)">
<stop offset="0.338691" stop-color="#3DCBFF"/>
<stop offset="1" stop-color="#14B1FF"/>
</radialGradient>
</defs>
</svg>
