<svg xmlns="http://www.w3.org/2000/svg" width="1024" height="1024" style="width:100%;height:100%;transform:translate3d(0,0,0)"><defs><linearGradient id="t" spreadMethod="pad" gradientUnits="userSpaceOnUse" x1="-4" y1="328" x2="-4" y2="517"><stop offset="0%" stop-color="#A25900"/><stop offset="12%" stop-color="#BC6904"/><stop offset="24%" stop-color="#D57909"/><stop offset="37%" stop-color="#EAA02C"/><stop offset="49%" stop-color="#FFC74F"/><stop offset="75%" stop-color="#EDA264"/><stop offset="100%" stop-color="#DC7E7A"/></linearGradient><linearGradient id="E" spreadMethod="pad" gradientUnits="userSpaceOnUse" x1="437" y1="-349" x2="394" y2="-375"><stop offset="0%" stop-color="#F7B86D"/><stop offset="50%" stop-color="#F2C38A"/><stop offset="100%" stop-color="#ECCEA7"/></linearGradient><linearGradient id="h" spreadMethod="pad" gradientUnits="userSpaceOnUse" x1="-4" y1="53" x2="-4" y2="254"><stop stop-color="#FFF" offset="0%"/><stop stop-color="#FFF" offset="17%" stop-opacity=".5"/><stop stop-color="#FFF" offset="35%" stop-opacity="0"/><stop stop-color="#FFF" offset="51%" stop-opacity="0"/><stop stop-color="#FFF" offset="66%" stop-opacity="0"/><stop stop-color="#FFF" offset="83%" stop-opacity=".5"/><stop stop-color="#FFF" offset="100%"/></linearGradient><linearGradient id="C" spreadMethod="pad" gradientUnits="userSpaceOnUse" x1="-4" y1="53" x2="-4" y2="254"><stop offset="0%" stop-color="#F4B436"/><stop offset="25%" stop-color="#F9BD43"/><stop offset="49%" stop-color="#FFC74F"/><stop offset="75%" stop-color="#EDA264"/><stop offset="100%" stop-color="#DC7E7A"/></linearGradient><linearGradient id="B" spreadMethod="pad" gradientUnits="userSpaceOnUse" x1="-164" y1="146" x2="187" y2="146"><stop offset="0%" stop-color="#E48F3D"/><stop offset="23%" stop-color="#F1B336"/><stop offset="47%" stop-color="#FFD72E"/><stop offset="59%" stop-color="#FFDE53"/><stop offset="72%" stop-color="#FFE577"/><stop offset="79%" stop-color="#FFDE53"/><stop offset="87%" stop-color="#FFD72E"/><stop offset="93%" stop-color="#FFD33B"/><stop offset="100%" stop-color="#FFD049"/></linearGradient><linearGradient id="g" spreadMethod="pad" gradientUnits="userSpaceOnUse" x1="31" y1="169" x2="32" y2="411"><stop stop-color="#FFF" offset="0%"/><stop stop-color="#FFF" offset="12%" stop-opacity=".825"/><stop stop-color="#FFF" offset="24%" stop-opacity=".65"/><stop stop-color="#FFF" offset="45%" stop-opacity=".325"/><stop stop-color="#FFF" offset="66%" stop-opacity="0"/><stop stop-color="#FFF" offset="83%" stop-opacity=".5"/><stop stop-color="#FFF" offset="100%"/></linearGradient><linearGradient id="z" spreadMethod="pad" gradientUnits="userSpaceOnUse" x1="31" y1="169" x2="32" y2="411"><stop offset="0%" stop-color="#A25900"/><stop offset="12%" stop-color="#BC6904"/><stop offset="24%" stop-color="#D57909"/><stop offset="37%" stop-color="#EAA02C"/><stop offset="49%" stop-color="#FFC74F"/><stop offset="75%" stop-color="#EDA264"/><stop offset="100%" stop-color="#DC7E7A"/></linearGradient><linearGradient id="y" spreadMethod="pad" gradientUnits="userSpaceOnUse" x1="-149" y1="294" x2="179" y2="293"><stop offset="0%" stop-color="#E48F3D"/><stop offset="23%" stop-color="#F1B336"/><stop offset="47%" stop-color="#FFD72E"/><stop offset="59%" stop-color="#FFDE53"/><stop offset="72%" stop-color="#FFE577"/><stop offset="79%" stop-color="#FFDE53"/><stop offset="87%" stop-color="#FFD72E"/><stop offset="93%" stop-color="#FFD33B"/><stop offset="100%" stop-color="#FFD049"/></linearGradient><linearGradient id="f" spreadMethod="pad" gradientUnits="userSpaceOnUse" x1="-3" y1="-90" x2="-4" y2="112"><stop stop-color="#FFF" offset="0%"/><stop stop-color="#FFF" offset="17%" stop-opacity=".5"/><stop stop-color="#FFF" offset="35%" stop-opacity="0"/><stop stop-color="#FFF" offset="46%" stop-opacity="0"/><stop stop-color="#FFF" offset="56%" stop-opacity="0"/><stop stop-color="#FFF" offset="78%" stop-opacity=".5"/><stop stop-color="#FFF" offset="100%"/></linearGradient><linearGradient id="w" spreadMethod="pad" gradientUnits="userSpaceOnUse" x1="-3" y1="-90" x2="-4" y2="112"><stop offset="0%" stop-color="#F4B436"/><stop offset="25%" stop-color="#F9BD43"/><stop offset="49%" stop-color="#FFC74F"/><stop offset="67%" stop-color="#D9A330"/><stop offset="85%" stop-color="#B38011"/><stop offset="92%" stop-color="#AF6228"/><stop offset="100%" stop-color="#AC443F"/></linearGradient><linearGradient id="v" spreadMethod="pad" gradientUnits="userSpaceOnUse" x1="-173" y1="2" x2="141" y2="2"><stop offset="0%" stop-color="#E48F3D"/><stop offset="23%" stop-color="#F1B336"/><stop offset="47%" stop-color="#FFD72E"/><stop offset="59%" stop-color="#FFDE53"/><stop offset="72%" stop-color="#FFE577"/><stop offset="79%" stop-color="#FFDE53"/><stop offset="87%" stop-color="#FFD72E"/><stop offset="93%" stop-color="#FFD33B"/><stop offset="100%" stop-color="#FFD049"/></linearGradient><linearGradient id="e" spreadMethod="pad" gradientUnits="userSpaceOnUse" x1="-4" y1="328" x2="-4" y2="517"><stop stop-color="#FFF" offset="0%"/><stop stop-color="#FFF" offset="12%" stop-opacity=".825"/><stop stop-color="#FFF" offset="24%" stop-opacity=".65"/><stop stop-color="#FFF" offset="45%" stop-opacity=".325"/><stop stop-color="#FFF" offset="66%" stop-opacity="0"/><stop stop-color="#FFF" offset="83%" stop-opacity=".5"/><stop stop-color="#FFF" offset="100%"/></linearGradient><linearGradient id="s" spreadMethod="pad" gradientUnits="userSpaceOnUse" x1="-148" y1="420" x2="141" y2="419"><stop offset="0%" stop-color="#E48F3D"/><stop offset="23%" stop-color="#F1B336"/><stop offset="47%" stop-color="#FFD72E"/><stop offset="59%" stop-color="#FFDE53"/><stop offset="72%" stop-color="#FFE577"/><stop offset="79%" stop-color="#FFDE53"/><stop offset="87%" stop-color="#FFD72E"/><stop offset="93%" stop-color="#FFD33B"/><stop offset="100%" stop-color="#FFD049"/></linearGradient><radialGradient id="b" spreadMethod="pad" gradientUnits="userSpaceOnUse" cx="-359" cy="280" r="513.429" fx="-359" fy="280"><stop stop-color="#FFF" offset="0%"/><stop stop-color="#FFF" offset="22%"/><stop stop-color="#FFF" offset="45%"/><stop stop-color="#FFF" offset="72%" stop-opacity=".5"/><stop stop-color="#FFF" offset="100%" stop-opacity="0"/></radialGradient><radialGradient id="d" spreadMethod="pad" gradientUnits="userSpaceOnUse" cx="-490" cy="-377" r="209.898" fx="-490" fy="-377"><stop stop-color="#FFF" offset="0%"/><stop stop-color="#FFF" offset="11%"/><stop stop-color="#FFF" offset="21%"/><stop stop-color="#FFF" offset="61%" stop-opacity=".5"/><stop stop-color="#FFF" offset="100%" stop-opacity="0"/></radialGradient><radialGradient id="j" spreadMethod="pad" gradientUnits="userSpaceOnUse" cx="-380" cy="139" r="740.068" fx="-380" fy="139"><stop offset="0%" stop-color="#F1AF2E"/><stop offset="27%" stop-color="#F1AF2E"/><stop offset="54%" stop-color="#F1AF2E"/><stop offset="77%" stop-color="#E79547"/><stop offset="100%" stop-color="#DC7B60"/></radialGradient><radialGradient id="k" spreadMethod="pad" gradientUnits="userSpaceOnUse" cx="-614" cy="104" r="332.832" fx="-614" fy="104"><stop offset="0%" stop-color="#F1FE67"/><stop offset="25%" stop-color="#F8DB4E"/><stop offset="51%" stop-color="#FFB834"/><stop offset="75%" stop-color="#FFC030"/><stop offset="100%" stop-color="#FFC72C"/></radialGradient><radialGradient id="q" spreadMethod="pad" gradientUnits="userSpaceOnUse" cx="-490" cy="-377" r="209.898" fx="-490" fy="-377"><stop offset="0%" stop-color="#FFF49A"/><stop offset="50%" stop-color="#FFD84D"/><stop offset="100%" stop-color="#FFBC00"/></radialGradient><radialGradient id="c" spreadMethod="pad" gradientUnits="userSpaceOnUse" cx="-123" cy="153" r="483.004" fx="-123" fy="153"><stop stop-color="#FFF" offset="0%"/><stop stop-color="#FFF" offset="11%"/><stop stop-color="#FFF" offset="21%"/><stop stop-color="#FFF" offset="61%" stop-opacity=".5"/><stop stop-color="#FFF" offset="100%" stop-opacity="0"/></radialGradient><radialGradient id="a" spreadMethod="pad" gradientUnits="userSpaceOnUse" cx="-614" cy="104" r="332.832" fx="-614" fy="104"><stop stop-color="#FFF" offset="0%"/><stop stop-color="#FFF" offset="22%"/><stop stop-color="#FFF" offset="45%"/><stop stop-color="#FFF" offset="72%" stop-opacity=".5"/><stop stop-color="#FFF" offset="100%" stop-opacity="0"/></radialGradient><radialGradient id="m" spreadMethod="pad" gradientUnits="userSpaceOnUse" cx="-359" cy="280" r="513.429" fx="-359" fy="280"><stop offset="0%" stop-color="#E6834C"/><stop offset="25%" stop-color="#F1934D"/><stop offset="51%" stop-color="#FDA24D"/><stop offset="75%" stop-color="#FEB53C"/><stop offset="100%" stop-color="#FFC72C"/></radialGradient><radialGradient id="o" spreadMethod="pad" gradientUnits="userSpaceOnUse" cx="-123" cy="153" r="483.004" fx="-123" fy="153"><stop offset="0%" stop-color="#833700"/><stop offset="50%" stop-color="#A14700"/><stop offset="100%" stop-color="#BE5800"/></radialGradient><mask id="r"><path fill="url(#d)" d="M-529-445c-66 0-99.5 71.5-99.5 101.5s4.5 134-9 159.5C-661.147-139.334-741-100.5-777-68s-86.355 95.502-87 229c-.5 103.5 59 194 128.5 235.5 70.169 41.899 232.502 48.128 322.5 47.5 143.25-1 151-112 151-304s-135-265.75-150-282.75-9.75-35.5-8.25-45l.001-.005s.02-.127.029-.195c1.461-10.528.72-102.398.72-154.55C-419.5-395-463-445-529-445z"/></mask><mask id="n"><path fill="url(#b)" d="M-529-445c-66 0-99.5 71.5-99.5 101.5s4.5 134-9 159.5C-661.147-139.334-741-100.5-777-68s-86.355 95.502-87 229c-.5 103.5 59 194 128.5 235.5 70.169 41.899 232.502 48.128 322.5 47.5 143.25-1 151-112 151-304s-135-265.75-150-282.75-9.75-35.5-8.25-45l.001-.005s.02-.127.029-.195c1.461-10.528.72-102.398.72-154.55C-419.5-395-463-445-529-445z"/></mask><mask id="A"><path fill="url(#g)" d="M177.5 294c0 49.499-36.625 85.875-73.5 88l-152.75 3.375c-54.875 1.5-97-43.626-97-93.125s37.501-86.5 87-86.5l151.5-.25c49.498 0 84.75 39.001 84.75 88.5z"/></mask><mask id="x"><path fill="url(#f)" d="M144.25 2.75c0 49.499-37.251 90.75-86.75 90.75l-112.25.125c-49.499 0-89.75-41.376-89.75-90.875s40.251-92.375 89.75-92.375L57.5-89.75c49.499 0 86.75 43.001 86.75 92.5z"/></mask><mask id="p"><path fill="url(#c)" d="M-529-445c-66 0-99.5 71.5-99.5 101.5s4.5 134-9 159.5C-661.147-139.334-741-100.5-777-68s-86.355 95.502-87 229c-.5 103.5 59 194 128.5 235.5 70.169 41.899 232.502 48.128 322.5 47.5 143.25-1 151-112 151-304s-135-265.75-150-282.75-9.75-35.5-8.25-45l.001-.005s.02-.127.029-.195c1.461-10.528.72-102.398.72-154.55C-419.5-395-463-445-529-445z"/></mask><mask id="l"><path fill="url(#a)" d="M-529-445c-66 0-99.5 71.5-99.5 101.5s4.5 134-9 159.5C-661.147-139.334-741-100.5-777-68s-86.355 95.502-87 229c-.5 103.5 59 194 128.5 235.5 70.169 41.899 232.502 48.128 322.5 47.5 143.25-1 151-112 151-304s-135-265.75-150-282.75-9.75-35.5-8.25-45l.001-.005s.02-.127.029-.195c1.461-10.528.72-102.398.72-154.55C-419.5-395-463-445-529-445z"/></mask><mask id="D"><path fill="url(#h)" d="M177.75 149c0 49.499-36.625 81.875-73.5 84L-53 235.625c-54.875 2.5-93.75-37.876-93.75-87.375s42.001-91.375 91.5-91.375L91 56.5c49.499 0 86.75 43.001 86.75 92.5z"/></mask><mask id="u"><path fill="url(#e)" d="M134.25 423.25c0 49.499-37.251 90.75-86.75 90.75l-104 .125c-49.499 0-89.75-41.376-89.75-90.875s40.251-88.625 89.75-88.625l104-.125c49.499 0 86.75 39.251 86.75 88.75z"/></mask><clipPath id="i"><path d="M0 0h1024v1024H0z"/></clipPath></defs><g clip-path="url(#i)"><g style="display:block"><path fill="url(#j)" d="M-529-445c-66 0-99.5 71.5-99.5 101.5s4.5 134-9 159.5C-661.147-139.334-741-100.5-777-68s-86.355 95.502-87 229c-.5 103.5 59 194 128.5 235.5 70.169 41.899 232.502 48.128 322.5 47.5 143.25-1 151-112 151-304s-135-265.75-150-282.75-9.75-35.5-8.25-45l.001-.005s.02-.127.029-.195c1.461-10.528.72-102.398.72-154.55C-419.5-395-463-445-529-445z" transform="translate(1022.779 512)"/><path fill="url(#k)" mask="url(#l)" d="M-529-445c-66 0-99.5 71.5-99.5 101.5s4.5 134-9 159.5C-661.147-139.334-741-100.5-777-68s-86.355 95.502-87 229c-.5 103.5 59 194 128.5 235.5 70.169 41.899 232.502 48.128 322.5 47.5 143.25-1 151-112 151-304s-135-265.75-150-282.75-9.75-35.5-8.25-45l.001-.005s.02-.127.029-.195c1.461-10.528.72-102.398.72-154.55C-419.5-395-463-445-529-445z" transform="translate(1022.779 512)"/><path fill="url(#m)" mask="url(#n)" d="M-529-445c-66 0-99.5 71.5-99.5 101.5s4.5 134-9 159.5C-661.147-139.334-741-100.5-777-68s-86.355 95.502-87 229c-.5 103.5 59 194 128.5 235.5 70.169 41.899 232.502 48.128 322.5 47.5 143.25-1 151-112 151-304s-135-265.75-150-282.75-9.75-35.5-8.25-45l.001-.005s.02-.127.029-.195c1.461-10.528.72-102.398.72-154.55C-419.5-395-463-445-529-445z" transform="translate(1022.779 512)"/><path fill="url(#o)" mask="url(#p)" d="M-529-445c-66 0-99.5 71.5-99.5 101.5s4.5 134-9 159.5C-661.147-139.334-741-100.5-777-68s-86.355 95.502-87 229c-.5 103.5 59 194 128.5 235.5 70.169 41.899 232.502 48.128 322.5 47.5 143.25-1 151-112 151-304s-135-265.75-150-282.75-9.75-35.5-8.25-45l.001-.005s.02-.127.029-.195c1.461-10.528.72-102.398.72-154.55C-419.5-395-463-445-529-445z" transform="translate(1022.779 512)"/><path fill="url(#q)" mask="url(#r)" fill-opacity=".8" d="M-529-445c-66 0-99.5 71.5-99.5 101.5s4.5 134-9 159.5C-661.147-139.334-741-100.5-777-68s-86.355 95.502-87 229c-.5 103.5 59 194 128.5 235.5 70.169 41.899 232.502 48.128 322.5 47.5 143.25-1 151-112 151-304s-135-265.75-150-282.75-9.75-35.5-8.25-45l.001-.005s.02-.127.029-.195c1.461-10.528.72-102.398.72-154.55C-419.5-395-463-445-529-445z" transform="translate(1022.779 512)"/></g><g style="display:block"><path fill="url(#s)" d="M134.25 423.25c0 49.499-37.251 90.75-86.75 90.75l-104 .125c-49.499 0-89.75-41.376-89.75-90.875s40.251-88.625 89.75-88.625l104-.125c49.499 0 86.75 39.251 86.75 88.75z" transform="translate(685.904 442.625)"/><path fill="url(#t)" mask="url(#u)" d="M134.25 423.25c0 49.499-37.251 90.75-86.75 90.75l-104 .125c-49.499 0-89.75-41.376-89.75-90.875s40.251-88.625 89.75-88.625l104-.125c49.499 0 86.75 39.251 86.75 88.75z" transform="translate(685.904 442.625)"/></g><g style="display:block"><path fill="url(#v)" d="M144.25 2.75c0 49.499-37.251 90.75-86.75 90.75l-112.25.125c-49.499 0-89.75-41.376-89.75-90.875s40.251-92.375 89.75-92.375L57.5-89.75c49.499 0 86.75 43.001 86.75 92.5z" transform="translate(685.904 442.625)"/><path fill="url(#w)" mask="url(#x)" d="M144.25 2.75c0 49.499-37.251 90.75-86.75 90.75l-112.25.125c-49.499 0-89.75-41.376-89.75-90.875s40.251-92.375 89.75-92.375L57.5-89.75c49.499 0 86.75 43.001 86.75 92.5z" transform="translate(685.904 442.625)"/></g><g style="display:block"><path fill="url(#y)" d="M177.5 294c0 49.499-36.625 85.875-73.5 88l-152.75 3.375c-54.875 1.5-97-43.626-97-93.125s37.501-86.5 87-86.5l151.5-.25c49.498 0 84.75 39.001 84.75 88.5z" transform="translate(685.904 442.625)"/><path fill="url(#z)" mask="url(#A)" d="M177.5 294c0 49.499-36.625 85.875-73.5 88l-152.75 3.375c-54.875 1.5-97-43.626-97-93.125s37.501-86.5 87-86.5l151.5-.25c49.498 0 84.75 39.001 84.75 88.5z" transform="translate(685.904 442.625)"/></g><g style="display:block"><path fill="url(#B)" d="M177.75 149c0 49.499-36.625 81.875-73.5 84L-53 235.625c-54.875 2.5-93.75-37.876-93.75-87.375s42.001-91.375 91.5-91.375L91 56.5c49.499 0 86.75 43.001 86.75 92.5z" transform="translate(685.904 442.625)"/><path fill="url(#C)" mask="url(#D)" d="M177.75 149c0 49.499-36.625 81.875-73.5 84L-53 235.625c-54.875 2.5-93.75-37.876-93.75-87.375s42.001-91.375 91.5-91.375L91 56.5c49.499 0 86.75 43.001 86.75 92.5z" transform="translate(685.904 442.625)"/></g><path fill="url(#E)" d="M434.5-421s-18.75 16.5-29.25 37.875-9.625 50.25-9.625 50.25h47.25V-350c0-7.625-7.25-41.375-8.875-54.5s.5-16.5.5-16.5z" transform="translate(-1.721 512)" style="display:block"/></g></svg>