<svg viewBox="0 0 24 24" fill="none" xmlns="http://www.w3.org/2000/svg">
<path d="M5 16.545L12 8L19 13.0526V19.25C19 20.2165 18.2165 21 17.25 21H8C6.34315 21 5 19.6569 5 18V16.545Z" fill="url(#paint0_radial_78825_2996)"/>
<path d="M5 10.5192C5 9.27659 6.00736 8.26923 7.25 8.26923H17.4444L19 7V13.25C19 14.2165 18.2165 15 17.25 15H8C6.34315 15 5 16.3431 5 18V10.5192Z" fill="url(#paint1_linear_78825_2996)"/>
<path d="M5 10.5192C5 9.27659 6.00736 8.26923 7.25 8.26923H17.4444L19 7V13.25C19 14.2165 18.2165 15 17.25 15H8C6.34315 15 5 16.3431 5 18V10.5192Z" fill="url(#paint2_radial_78825_2996)" fill-opacity="0.6"/>
<path d="M5 10.5192C5 9.27659 6.00736 8.26923 7.25 8.26923H17.4444L19 7V13.25C19 14.2165 18.2165 15 17.25 15H8C6.34315 15 5 16.3431 5 18V10.5192Z" fill="url(#paint3_radial_78825_2996)" fill-opacity="0.1"/>
<path d="M5 6C5 4.34315 6.34315 3 8 3H17.25C18.2165 3 19 3.7835 19 4.75V7.25C19 8.2165 18.2165 9 17.25 9H8C6.34315 9 5 10.3431 5 12V6Z" fill="url(#paint4_linear_78825_2996)"/>
<path d="M5 6C5 4.34315 6.34315 3 8 3H17.25C18.2165 3 19 3.7835 19 4.75V7.25C19 8.2165 18.2165 9 17.25 9H8C6.34315 9 5 10.3431 5 12V6Z" fill="url(#paint5_radial_78825_2996)" fill-opacity="0.8"/>
<path d="M5 16.545L12 8L20 13.0526V19.25C20 20.2165 19.2165 21 18.25 21H8C6.34315 21 5 19.6569 5 18V16.545Z" fill="#1657F4"/>
<path d="M5 16.545L12 8L20 13.0526V19.25C20 20.2165 19.2165 21 18.25 21H8C6.34315 21 5 19.6569 5 18V16.545Z" fill="url(#paint6_radial_78825_2996)" fill-opacity="0.4"/>
<path d="M5 10.5192C5 9.27659 6.00736 8.26923 7.25 8.26923H18.4444L20 7V13.25C20 14.2165 19.2165 15 18.25 15H8C6.34315 15 5 16.3431 5 18V10.5192Z" fill="url(#paint7_linear_78825_2996)"/>
<path d="M5 10.5192C5 9.27659 6.00736 8.26923 7.25 8.26923H18.4444L20 7V13.25C20 14.2165 19.2165 15 18.25 15H8C6.34315 15 5 16.3431 5 18V10.5192Z" fill="url(#paint8_radial_78825_2996)" fill-opacity="0.5"/>
<path d="M5 10.5192C5 9.27659 6.00736 8.26923 7.25 8.26923H18.4444L20 7V13.25C20 14.2165 19.2165 15 18.25 15H8C6.34315 15 5 16.3431 5 18V10.5192Z" fill="url(#paint9_radial_78825_2996)" fill-opacity="0.3"/>
<path d="M5 6C5 4.34315 6.34315 3 8 3H18.25C19.2165 3 20 3.7835 20 4.75V7.25C20 8.2165 19.2165 9 18.25 9H8C6.34315 9 5 10.3431 5 12V6Z" fill="url(#paint10_linear_78825_2996)"/>
<rect x="2" y="10" width="9" height="9" rx="2" fill="url(#paint11_radial_78825_2996)"/>
<rect x="2" y="10" width="9" height="9" rx="2" fill="url(#paint12_radial_78825_2996)" fill-opacity="0.65"/>
<path d="M9.5 12L8.42306 16.9994L7.13577 17L6.5 14L5.83446 17H4.53488L3.5 12.0006H4.56146L5.2 15.3L5.83446 12.0006H7.13577L7.8 15.3L8.42306 12.0006L9.5 12Z" fill="white"/>
<defs>
<radialGradient id="paint0_radial_78825_2996" cx="0" cy="0" r="1" gradientUnits="userSpaceOnUse" gradientTransform="translate(18.5919 20.9997) scale(22.2009 10.0747)">
<stop offset="0.180414" stop-color="#1657F4"/>
<stop offset="0.574542" stop-color="#0036C4"/>
</radialGradient>
<linearGradient id="paint1_linear_78825_2996" x1="5" y1="12.5" x2="15.7215" y2="12.5" gradientUnits="userSpaceOnUse">
<stop stop-color="#66C0FF"/>
<stop offset="0.25606" stop-color="#0094F0"/>
</linearGradient>
<radialGradient id="paint2_radial_78825_2996" cx="0" cy="0" r="1" gradientTransform="matrix(-9.44088 10.6421 -20.7517 -29.0942 19 7.35789)" gradientUnits="userSpaceOnUse">
<stop offset="0.140259" stop-color="#D471FF"/>
<stop offset="0.830508" stop-color="#509DF5" stop-opacity="0"/>
</radialGradient>
<radialGradient id="paint3_radial_78825_2996" cx="0" cy="0" r="1" gradientUnits="userSpaceOnUse" gradientTransform="translate(16.9518 14.6154) rotate(90) scale(9.30769 47.4352)">
<stop offset="0.283333" stop-color="#4F006F" stop-opacity="0"/>
<stop offset="1" stop-color="#4F006F"/>
</radialGradient>
<linearGradient id="paint4_linear_78825_2996" x1="5" y1="7.5" x2="18.9967" y2="7.71579" gradientUnits="userSpaceOnUse">
<stop stop-color="#9DEAFF"/>
<stop offset="0.201276" stop-color="#3BD5FF"/>
</linearGradient>
<radialGradient id="paint5_radial_78825_2996" cx="0" cy="0" r="1" gradientTransform="matrix(-13.4036 3.35377 -8.39903 -34.1706 19 3.29282)" gradientUnits="userSpaceOnUse">
<stop offset="0.0606583" stop-color="#E4A7FE"/>
<stop offset="0.538869" stop-color="#E4A7FE" stop-opacity="0"/>
</radialGradient>
<radialGradient id="paint6_radial_78825_2996" cx="0" cy="0" r="1" gradientTransform="matrix(24.2589 0.20392 -0.0847701 10.7807 16.3626 22.0408)" gradientUnits="userSpaceOnUse">
<stop offset="0.124676" stop-color="#4F006F" stop-opacity="0"/>
<stop offset="0.59498" stop-color="#4F006F"/>
</radialGradient>
<linearGradient id="paint7_linear_78825_2996" x1="5" y1="11.6856" x2="18.9987" y2="11.819" gradientUnits="userSpaceOnUse">
<stop stop-color="#5966F3"/>
<stop offset="0.34" stop-color="#257BF9"/>
<stop offset="1" stop-color="#24ABFF"/>
</linearGradient>
<radialGradient id="paint8_radial_78825_2996" cx="0" cy="0" r="1" gradientUnits="userSpaceOnUse" gradientTransform="translate(16.9518 14.6154) rotate(90) scale(9.30769 47.4352)">
<stop offset="0.283333" stop-color="#4F006F" stop-opacity="0"/>
<stop offset="1" stop-color="#4F006F"/>
</radialGradient>
<radialGradient id="paint9_radial_78825_2996" cx="0" cy="0" r="1" gradientUnits="userSpaceOnUse" gradientTransform="translate(16.9518 14.6154) rotate(90) scale(9.71329 27.1704)">
<stop offset="0.55" stop-color="#4F006F" stop-opacity="0"/>
<stop offset="1" stop-color="#4F006F"/>
</radialGradient>
<linearGradient id="paint10_linear_78825_2996" x1="19" y1="5.64045" x2="5" y2="5.64045" gradientUnits="userSpaceOnUse">
<stop stop-color="#66D9FF"/>
<stop offset="0.26" stop-color="#48CEFF"/>
<stop offset="1" stop-color="#AD9EFF"/>
</linearGradient>
<radialGradient id="paint11_radial_78825_2996" cx="0" cy="0" r="1" gradientUnits="userSpaceOnUse" gradientTransform="translate(2 10) rotate(45) scale(12.7279)">
<stop offset="0.0811439" stop-color="#367AF2"/>
<stop offset="0.871875" stop-color="#001A8F"/>
</radialGradient>
<radialGradient id="paint12_radial_78825_2996" cx="0" cy="0" r="1" gradientUnits="userSpaceOnUse" gradientTransform="translate(6.5 15.4) rotate(90) scale(6.3 7.1803)">
<stop offset="0.586954" stop-color="#2763E5" stop-opacity="0"/>
<stop offset="0.973806" stop-color="#58AAFE"/>
</radialGradient>
</defs>
</svg>
